<?xml version="1.0" standalone="no"?>
<!DOCTYPE svg PUBLIC "-//W3C//DTD SVG 20010904//EN"
 "http://www.w3.org/TR/2001/REC-SVG-20010904/DTD/svg10.dtd">
<svg version="1.0" xmlns="http://www.w3.org/2000/svg"
 width="920.000000pt" height="908.000000pt" viewBox="0 0 920.000000 908.000000"
 preserveAspectRatio="xMidYMid meet">

<g transform="translate(0.000000,908.000000) scale(0.100000,-0.100000)"
fill="#000000" stroke="none">
<path d="M2365 8134 c-156 -9 -390 -26 -485 -35 -103 -10 -208 -20 -420 -39
-58 -5 -141 -14 -185 -20 -44 -6 -109 -15 -145 -20 -108 -14 -164 -29 -185
-50 -18 -19 -20 -36 -23 -199 l-4 -179 32 -36 c18 -20 39 -36 47 -36 7 0 35
-21 61 -47 52 -52 75 -113 107 -278 22 -118 36 -185 45 -230 35 -156 54 -239
70 -295 10 -36 23 -87 30 -115 31 -127 99 -296 163 -408 29 -50 200 -227 220
-227 6 0 18 -6 26 -14 27 -23 142 -81 211 -105 36 -12 74 -26 85 -31 184 -81
666 -131 885 -91 30 5 96 17 145 26 200 35 421 126 552 226 271 209 488 536
623 941 23 68 45 132 50 143 5 11 19 45 31 75 37 90 60 118 117 147 45 22 66
26 150 27 209 2 259 -46 342 -324 35 -117 46 -151 65 -195 8 -16 22 -52 33
-80 20 -49 102 -221 125 -260 14 -23 91 -137 140 -205 44 -62 210 -229 277
-277 199 -144 430 -229 750 -274 124 -17 507 2 622 32 24 6 63 14 88 19 45 7
168 46 225 70 98 42 128 57 201 106 216 142 327 341 435 774 17 69 37 154 44
190 7 36 20 101 29 145 9 44 21 107 27 140 37 209 67 273 159 335 89 60 92 70
88 275 -4 203 0 197 -113 215 -38 7 -90 16 -115 20 -42 8 -78 14 -242 40 -35
5 -99 14 -143 20 -44 6 -114 15 -155 20 -147 20 -543 51 -805 65 -60 3 -209 1
-330 -6 -121 -6 -247 -12 -280 -13 -75 -4 -175 -20 -240 -39 -27 -9 -68 -18
-90 -21 -22 -4 -67 -10 -100 -15 -102 -15 -274 -49 -415 -82 -360 -84 -353
-83 -590 -83 -201 0 -223 2 -335 28 -66 16 -138 32 -160 36 -22 5 -116 27
-210 50 -248 59 -525 111 -705 130 -242 26 -309 30 -530 33 -129 2 -262 2
-295 1z m4397 -56 c-23 -9 -152 -10 -152 0 0 4 38 7 85 7 46 0 77 -3 67 -7z
m169 -10 c0 -10 2 -10 6 0 2 6 8 10 11 8 4 -2 43 -7 87 -10 165 -13 573 -57
665 -73 52 -9 106 -16 119 -15 15 0 19 -3 12 -8 -7 -4 10 -10 41 -14 161 -20
209 -29 196 -37 -7 -5 -20 -7 -28 -4 -8 2 -121 18 -250 34 -173 22 -296 32
-465 36 -367 8 -646 26 -679 41 -16 8 -41 13 -55 13 -25 -1 -25 -2 4 -9 l30
-8 -35 -1 c-19 0 -41 3 -48 8 -24 15 25 22 176 28 78 3 142 9 142 14 0 14 70
11 71 -3z m-4016 -98 c166 -16 268 -30 400 -56 74 -15 121 -20 123 -14 2 5 24
10 50 10 48 0 112 -33 112 -58 0 -7 12 -17 28 -24 68 -28 141 -63 187 -91 61
-37 143 -119 151 -152 3 -14 9 -25 14 -25 20 0 44 -88 49 -178 10 -167 -6
-341 -44 -487 -59 -226 -63 -236 -159 -430 -113 -228 -216 -356 -376 -463
-129 -87 -255 -133 -475 -174 -111 -20 -545 -16 -660 7 -49 10 -110 20 -135
22 -25 3 -49 9 -55 14 -5 5 -19 9 -30 9 -75 0 -294 102 -371 172 -44 41 -58
48 -93 48 -42 0 -57 18 -22 27 10 3 18 10 17 16 -3 25 -29 77 -37 77 -5 0 -9
5 -9 10 0 6 -13 40 -30 75 -16 35 -30 72 -30 82 0 11 -9 36 -20 58 -11 22 -20
50 -20 63 0 13 -7 53 -15 90 -8 37 -16 121 -18 187 -2 67 -7 127 -12 135 -5 8
-8 80 -7 160 9 515 8 492 30 537 12 23 22 47 22 53 0 23 134 149 183 174 90
44 128 56 177 56 26 0 73 9 105 20 32 11 80 20 106 20 27 0 68 4 91 10 111 25
583 38 773 20z m900 0 l20 -9 -20 0 c-11 0 -29 4 -40 9 l-20 9 20 0 c11 0 29
-4 40 -9z m-23 -14 c38 -1 61 -5 55 -9 -7 -5 3 -6 23 -3 21 4 30 3 22 -3 -10
-6 -8 -10 10 -14 12 -3 41 -12 63 -21 22 -8 61 -15 87 -16 56 0 78 -8 78 -26
0 -16 -28 -18 -63 -5 -13 5 -82 19 -153 31 -118 19 -232 46 -244 57 -9 8 25
23 40 16 8 -3 45 -7 82 -7z m3108 -11 c78 -9 132 -24 125 -35 -5 -8 15 -13 93
-24 12 -2 24 0 27 3 12 21 273 -40 335 -77 66 -40 200 -189 200 -222 0 -6 10
-30 22 -53 21 -40 22 -54 24 -337 2 -247 -1 -315 -17 -420 -10 -69 -22 -159
-25 -200 -3 -41 -9 -84 -14 -95 -4 -11 -13 -40 -20 -65 -27 -95 -42 -136 -64
-175 -51 -87 -66 -116 -66 -128 -1 -15 -142 -128 -222 -178 -31 -19 -101 -49
-155 -66 -93 -30 -123 -37 -253 -61 -221 -42 -526 -42 -745 -1 -65 12 -236 64
-267 80 -11 6 -24 8 -31 6 -19 -7 92 -53 194 -81 52 -14 140 -32 196 -41 122
-18 378 -20 525 -4 95 10 346 57 393 74 16 5 17 4 5 -4 -25 -16 -206 -58 -330
-77 -191 -29 -505 -23 -694 12 -131 25 -302 82 -381 128 -64 38 -175 125 -175
137 0 6 25 -11 56 -36 31 -25 59 -43 63 -39 3 3 -19 27 -49 52 -85 71 -185
177 -226 239 -49 73 -166 309 -198 398 -43 120 -61 192 -89 360 -43 255 -24
454 55 571 33 50 109 119 160 145 22 11 44 33 53 54 10 19 24 36 33 39 39 11
88 15 100 7 8 -4 57 4 115 19 160 42 283 68 392 81 55 6 120 15 145 19 51 10
625 5 710 -5z m1233 -32 c-7 -2 -19 -2 -25 0 -7 3 -2 5 12 5 14 0 19 -2 13 -5z
m-3123 -63 c0 -5 -10 -10 -22 -10 -13 0 -48 -9 -78 -19 -82 -27 -120 -34 -120
-22 0 15 66 41 104 41 17 0 38 5 46 10 20 13 70 13 70 0z m-431 -39 c16 -10 6
-31 -14 -31 -17 0 -28 17 -20 30 8 12 16 12 34 1z m-3286 -33 c29 -12 56 -24
60 -28 5 -4 -15 -19 -44 -34 -57 -28 -114 -33 -170 -15 -63 22 -54 29 29 25
47 -3 82 -1 82 5 0 5 11 9 25 9 39 0 30 15 -17 30 -24 8 -46 14 -50 14 -3 1
-10 4 -14 9 -16 15 50 6 99 -15z m-198 -8 c-3 -5 -14 -10 -23 -10 -15 0 -15 2
-2 10 20 13 33 13 25 0z m6935 -32 c0 -4 3 -7 8 -7 4 1 14 1 22 0 15 -1 -23
-25 -57 -35 -10 -3 2 -3 27 0 41 5 43 4 25 -9 -26 -19 -87 -38 -123 -39 -40
-1 -132 33 -132 49 0 7 13 19 30 28 38 20 43 19 28 -5 -17 -27 2 -40 52 -38
l35 1 -35 4 c-98 12 -23 53 108 59 6 0 12 -3 12 -8z m70 -48 c0 -22 -153 -91
-168 -76 -7 8 2 17 20 20 44 9 96 29 118 46 29 23 30 23 30 10z m-209 -50 c16
0 29 -5 29 -11 0 -14 -70 -3 -85 13 -7 8 -4 9 8 4 10 -3 32 -6 48 -6z m-6353
-1365 c14 -31 15 -35 4 -35 -8 0 -32 43 -32 55 0 15 19 1 28 -20z m46 -91 c3
-8 2 -12 -4 -9 -6 3 -10 10 -10 16 0 14 7 11 14 -7z m5976 -106 c0 -5 -9 -8
-20 -8 -22 0 -28 26 -7 33 12 4 27 -10 27 -25z"/>
<path d="M7108 8033 c7 -3 16 -2 19 1 4 3 -2 6 -13 5 -11 0 -14 -3 -6 -6z"/>
<path d="M7295 8020 c33 -4 80 -8 105 -7 41 0 39 1 -15 7 -33 4 -80 8 -105 7
-41 0 -39 -1 15 -7z"/>
<path d="M7473 8003 c15 -2 37 -2 50 0 12 2 0 4 -28 4 -27 0 -38 -2 -22 -4z"/>
<path d="M7568 7993 c12 -2 30 -2 40 0 9 3 -1 5 -23 4 -22 0 -30 -2 -17 -4z"/>
<path d="M7668 7983 c7 -3 16 -2 19 1 4 3 -2 6 -13 5 -11 0 -14 -3 -6 -6z"/>
<path d="M1205 7710 c-4 -6 3 -10 14 -10 25 0 27 6 6 13 -8 4 -17 2 -20 -3z"/>
<path d="M7956 7692 c-3 -5 1 -9 9 -9 8 0 15 4 15 9 0 4 -4 8 -9 8 -6 0 -12
-4 -15 -8z"/>
</g>
</svg>
